<?xml version="1.0" encoding="UTF-8" standalone="no"?>
<!DOCTYPE svg PUBLIC "-//W3C//DTD SVG 1.1//EN"
 "http://www.w3.org/Graphics/SVG/1.1/DTD/svg11.dtd">
<!-- Generated by graphviz version 2.47.3 (20210619.1520)
 -->
<!-- Title: dependencies Pages: 1 -->
<svg width="2983pt" height="247pt"
 viewBox="0.00 0.00 2983.00 246.80" xmlns="http://www.w3.org/2000/svg" xmlns:xlink="http://www.w3.org/1999/xlink">
<g id="graph0" class="graph" transform="scale(1 1) rotate(0) translate(4 242.8)">
<title>dependencies</title>
<polygon fill="white" stroke="transparent" points="-4,4 -4,-242.8 2979,-242.8 2979,4 -4,4"/>
<text text-anchor="middle" x="1487.5" y="-8.2" font-family="sans-serif" font-size="14.00">dependencies</text>
<g id="clust1" class="cluster">
<title>cluster_AppModule</title>
<polygon fill="none" stroke="black" stroke-dasharray="1,5" points="8,-32.8 8,-230.8 2967,-230.8 2967,-32.8 8,-32.8"/>
</g>
<g id="clust21" class="cluster">
<title>cluster_AppModule_bootstrap</title>
<polygon fill="none" stroke="black" points="1369,-170.8 1369,-222.8 1493,-222.8 1493,-170.8 1369,-170.8"/>
</g>
<g id="clust22" class="cluster">
<title>cluster_AppModule_providers</title>
<polygon fill="none" stroke="black" points="2649,-40.8 2649,-92.8 2959,-92.8 2959,-40.8 2649,-40.8"/>
</g>
<g id="clust19" class="cluster">
<title>cluster_AppModule_imports</title>
<polygon fill="none" stroke="black" points="2497,-40.8 2497,-92.8 2641,-92.8 2641,-40.8 2497,-40.8"/>
</g>
<g id="clust2" class="cluster">
<title>cluster_AppModule_declarations</title>
<polygon fill="none" stroke="black" points="16,-40.8 16,-92.8 2489,-92.8 2489,-40.8 16,-40.8"/>
</g>
<!-- AnalysisComponent -->
<g id="node1" class="node">
<title>AnalysisComponent</title>
<polygon fill="#ffffb3" stroke="black" points="2481.32,-84.8 2350.68,-84.8 2350.68,-48.8 2481.32,-48.8 2481.32,-84.8"/>
<text text-anchor="middle" x="2416" y="-62.6" font-family="Times,serif" font-size="14.00">AnalysisComponent</text>
</g>
<!-- AppModule -->
<g id="node17" class="node">
<title>AppModule</title>
<polygon fill="#8dd3c7" stroke="black" points="1472.66,-149.8 1469.66,-153.8 1448.66,-153.8 1445.66,-149.8 1389.34,-149.8 1389.34,-113.8 1472.66,-113.8 1472.66,-149.8"/>
<text text-anchor="middle" x="1431" y="-127.6" font-family="Times,serif" font-size="14.00">AppModule</text>
</g>
<!-- AnalysisComponent&#45;&gt;AppModule -->
<g id="edge1" class="edge">
<title>AnalysisComponent&#45;&gt;AppModule</title>
<path fill="none" stroke="black" d="M2416,-84.93C2416,-105.37 2416,-135.8 2416,-135.8 2416,-135.8 1482.7,-135.8 1482.7,-135.8"/>
<polygon fill="black" stroke="black" points="1482.7,-132.3 1472.7,-135.8 1482.7,-139.3 1482.7,-132.3"/>
</g>
<!-- AppComponent -->
<g id="node2" class="node">
<title>AppComponent</title>
<polygon fill="#ffffb3" stroke="black" points="2332.94,-84.8 2227.06,-84.8 2227.06,-48.8 2332.94,-48.8 2332.94,-84.8"/>
<text text-anchor="middle" x="2280" y="-62.6" font-family="Times,serif" font-size="14.00">AppComponent</text>
</g>
<!-- AppComponent&#45;&gt;AppModule -->
<g id="edge2" class="edge">
<title>AppComponent&#45;&gt;AppModule</title>
<path fill="none" stroke="black" d="M2280,-84.91C2280,-104.14 2280,-131.8 2280,-131.8 2280,-131.8 1482.81,-131.8 1482.81,-131.8"/>
<polygon fill="black" stroke="black" points="1482.81,-128.3 1472.81,-131.8 1482.81,-135.3 1482.81,-128.3"/>
</g>
<!-- CompareMonthlyComponent -->
<g id="node3" class="node">
<title>CompareMonthlyComponent</title>
<polygon fill="#ffffb3" stroke="black" points="2209.38,-84.8 2028.62,-84.8 2028.62,-48.8 2209.38,-48.8 2209.38,-84.8"/>
<text text-anchor="middle" x="2119" y="-62.6" font-family="Times,serif" font-size="14.00">CompareMonthlyComponent</text>
</g>
<!-- CompareMonthlyComponent&#45;&gt;AppModule -->
<g id="edge3" class="edge">
<title>CompareMonthlyComponent&#45;&gt;AppModule</title>
<path fill="none" stroke="black" d="M2119,-85.07C2119,-103.36 2119,-128.8 2119,-128.8 2119,-128.8 1482.74,-128.8 1482.74,-128.8"/>
<polygon fill="black" stroke="black" points="1482.74,-125.3 1472.74,-128.8 1482.74,-132.3 1482.74,-125.3"/>
</g>
<!-- CompareWeeklyComponent -->
<g id="node4" class="node">
<title>CompareWeeklyComponent</title>
<polygon fill="#ffffb3" stroke="black" points="2010.18,-84.8 1833.82,-84.8 1833.82,-48.8 2010.18,-48.8 2010.18,-84.8"/>
<text text-anchor="middle" x="1922" y="-62.6" font-family="Times,serif" font-size="14.00">CompareWeeklyComponent</text>
</g>
<!-- CompareWeeklyComponent&#45;&gt;AppModule -->
<g id="edge4" class="edge">
<title>CompareWeeklyComponent&#45;&gt;AppModule</title>
<path fill="none" stroke="black" d="M1922,-84.83C1922,-101.86 1922,-124.8 1922,-124.8 1922,-124.8 1482.86,-124.8 1482.86,-124.8"/>
<polygon fill="black" stroke="black" points="1482.86,-121.3 1472.86,-124.8 1482.86,-128.3 1482.86,-121.3"/>
</g>
<!-- CompareYearlyComponent -->
<g id="node5" class="node">
<title>CompareYearlyComponent</title>
<polygon fill="#ffffb3" stroke="black" points="1816.24,-84.8 1645.76,-84.8 1645.76,-48.8 1816.24,-48.8 1816.24,-84.8"/>
<text text-anchor="middle" x="1731" y="-62.6" font-family="Times,serif" font-size="14.00">CompareYearlyComponent</text>
</g>
<!-- CompareYearlyComponent&#45;&gt;AppModule -->
<g id="edge5" class="edge">
<title>CompareYearlyComponent&#45;&gt;AppModule</title>
<path fill="none" stroke="black" d="M1731,-84.81C1731,-100.85 1731,-121.8 1731,-121.8 1731,-121.8 1482.71,-121.8 1482.71,-121.8"/>
<polygon fill="black" stroke="black" points="1482.71,-118.3 1472.71,-121.8 1482.71,-125.3 1482.71,-118.3"/>
</g>
<!-- FooterComponent -->
<g id="node6" class="node">
<title>FooterComponent</title>
<polygon fill="#ffffb3" stroke="black" points="1627.88,-84.8 1510.12,-84.8 1510.12,-48.8 1627.88,-48.8 1627.88,-84.8"/>
<text text-anchor="middle" x="1569" y="-62.6" font-family="Times,serif" font-size="14.00">FooterComponent</text>
</g>
<!-- FooterComponent&#45;&gt;AppModule -->
<g id="edge6" class="edge">
<title>FooterComponent&#45;&gt;AppModule</title>
<path fill="none" stroke="black" d="M1569,-84.92C1569,-99.58 1569,-117.8 1569,-117.8 1569,-117.8 1482.78,-117.8 1482.78,-117.8"/>
<polygon fill="black" stroke="black" points="1482.78,-114.3 1472.78,-117.8 1482.78,-121.3 1482.78,-114.3"/>
</g>
<!-- HeaderComponent -->
<g id="node7" class="node">
<title>HeaderComponent</title>
<polygon fill="#ffffb3" stroke="black" points="1491.74,-84.8 1370.26,-84.8 1370.26,-48.8 1491.74,-48.8 1491.74,-84.8"/>
<text text-anchor="middle" x="1431" y="-62.6" font-family="Times,serif" font-size="14.00">HeaderComponent</text>
</g>
<!-- HeaderComponent&#45;&gt;AppModule -->
<g id="edge7" class="edge">
<title>HeaderComponent&#45;&gt;AppModule</title>
<path fill="none" stroke="black" d="M1431,-84.91C1431,-84.91 1431,-103.79 1431,-103.79"/>
<polygon fill="black" stroke="black" points="1427.5,-103.79 1431,-113.79 1434.5,-103.79 1427.5,-103.79"/>
</g>
<!-- HomeComponent -->
<g id="node8" class="node">
<title>HomeComponent</title>
<polygon fill="#ffffb3" stroke="black" points="1351.55,-84.8 1236.45,-84.8 1236.45,-48.8 1351.55,-48.8 1351.55,-84.8"/>
<text text-anchor="middle" x="1294" y="-62.6" font-family="Times,serif" font-size="14.00">HomeComponent</text>
</g>
<!-- HomeComponent&#45;&gt;AppModule -->
<g id="edge8" class="edge">
<title>HomeComponent&#45;&gt;AppModule</title>
<path fill="none" stroke="black" d="M1294,-84.92C1294,-99.58 1294,-117.8 1294,-117.8 1294,-117.8 1379.15,-117.8 1379.15,-117.8"/>
<polygon fill="black" stroke="black" points="1379.15,-121.3 1389.15,-117.8 1379.15,-114.3 1379.15,-121.3"/>
</g>
<!-- LoaderComponent -->
<g id="node9" class="node">
<title>LoaderComponent</title>
<polygon fill="#ffffb3" stroke="black" points="1218.47,-84.8 1097.53,-84.8 1097.53,-48.8 1218.47,-48.8 1218.47,-84.8"/>
<text text-anchor="middle" x="1158" y="-62.6" font-family="Times,serif" font-size="14.00">LoaderComponent</text>
</g>
<!-- LoaderComponent&#45;&gt;AppModule -->
<g id="edge9" class="edge">
<title>LoaderComponent&#45;&gt;AppModule</title>
<path fill="none" stroke="black" d="M1158,-84.81C1158,-100.85 1158,-121.8 1158,-121.8 1158,-121.8 1379.24,-121.8 1379.24,-121.8"/>
<polygon fill="black" stroke="black" points="1379.24,-125.3 1389.24,-121.8 1379.24,-118.3 1379.24,-125.3"/>
</g>
<!-- LogInComponent -->
<g id="node10" class="node">
<title>LogInComponent</title>
<polygon fill="#ffffb3" stroke="black" points="1079.55,-84.8 964.45,-84.8 964.45,-48.8 1079.55,-48.8 1079.55,-84.8"/>
<text text-anchor="middle" x="1022" y="-62.6" font-family="Times,serif" font-size="14.00">LogInComponent</text>
</g>
<!-- LogInComponent&#45;&gt;AppModule -->
<g id="edge10" class="edge">
<title>LogInComponent&#45;&gt;AppModule</title>
<path fill="none" stroke="black" d="M1022,-84.83C1022,-101.86 1022,-124.8 1022,-124.8 1022,-124.8 1379.15,-124.8 1379.15,-124.8"/>
<polygon fill="black" stroke="black" points="1379.15,-128.3 1389.15,-124.8 1379.15,-121.3 1379.15,-128.3"/>
</g>
<!-- LoginHeaderComponent -->
<g id="node11" class="node">
<title>LoginHeaderComponent</title>
<polygon fill="#ffffb3" stroke="black" points="946.69,-84.8 791.31,-84.8 791.31,-48.8 946.69,-48.8 946.69,-84.8"/>
<text text-anchor="middle" x="869" y="-62.6" font-family="Times,serif" font-size="14.00">LoginHeaderComponent</text>
</g>
<!-- LoginHeaderComponent&#45;&gt;AppModule -->
<g id="edge11" class="edge">
<title>LoginHeaderComponent&#45;&gt;AppModule</title>
<path fill="none" stroke="black" d="M869,-85.07C869,-103.36 869,-128.8 869,-128.8 869,-128.8 1379.22,-128.8 1379.22,-128.8"/>
<polygon fill="black" stroke="black" points="1379.22,-132.3 1389.22,-128.8 1379.22,-125.3 1379.22,-132.3"/>
</g>
<!-- MenubarComponent -->
<g id="node12" class="node">
<title>MenubarComponent</title>
<polygon fill="#ffffb3" stroke="black" points="772.87,-84.8 641.13,-84.8 641.13,-48.8 772.87,-48.8 772.87,-84.8"/>
<text text-anchor="middle" x="707" y="-62.6" font-family="Times,serif" font-size="14.00">MenubarComponent</text>
</g>
<!-- MenubarComponent&#45;&gt;AppModule -->
<g id="edge12" class="edge">
<title>MenubarComponent&#45;&gt;AppModule</title>
<path fill="none" stroke="black" d="M707,-84.91C707,-104.14 707,-131.8 707,-131.8 707,-131.8 1379.21,-131.8 1379.21,-131.8"/>
<polygon fill="black" stroke="black" points="1379.21,-135.3 1389.21,-131.8 1379.21,-128.3 1379.21,-135.3"/>
</g>
<!-- PerimeterComponent -->
<g id="node13" class="node">
<title>PerimeterComponent</title>
<polygon fill="#ffffb3" stroke="black" points="622.75,-84.8 487.25,-84.8 487.25,-48.8 622.75,-48.8 622.75,-84.8"/>
<text text-anchor="middle" x="555" y="-62.6" font-family="Times,serif" font-size="14.00">PerimeterComponent</text>
</g>
<!-- PerimeterComponent&#45;&gt;AppModule -->
<g id="edge13" class="edge">
<title>PerimeterComponent&#45;&gt;AppModule</title>
<path fill="none" stroke="black" d="M555,-84.93C555,-105.37 555,-135.8 555,-135.8 555,-135.8 1379.34,-135.8 1379.34,-135.8"/>
<polygon fill="black" stroke="black" points="1379.34,-139.3 1389.34,-135.8 1379.34,-132.3 1379.34,-139.3"/>
</g>
<!-- QuarterlyComponent -->
<g id="node14" class="node">
<title>QuarterlyComponent</title>
<polygon fill="#ffffb3" stroke="black" points="469.47,-84.8 334.53,-84.8 334.53,-48.8 469.47,-48.8 469.47,-84.8"/>
<text text-anchor="middle" x="402" y="-62.6" font-family="Times,serif" font-size="14.00">QuarterlyComponent</text>
</g>
<!-- QuarterlyComponent&#45;&gt;AppModule -->
<g id="edge14" class="edge">
<title>QuarterlyComponent&#45;&gt;AppModule</title>
<path fill="none" stroke="black" d="M402,-84.84C402,-106.46 402,-139.8 402,-139.8 402,-139.8 1379.07,-139.8 1379.07,-139.8"/>
<polygon fill="black" stroke="black" points="1379.07,-143.3 1389.07,-139.8 1379.07,-136.3 1379.07,-143.3"/>
</g>
<!-- TrafficCountComponent -->
<g id="node15" class="node">
<title>TrafficCountComponent</title>
<polygon fill="#ffffb3" stroke="black" points="316.41,-84.8 161.59,-84.8 161.59,-48.8 316.41,-48.8 316.41,-84.8"/>
<text text-anchor="middle" x="239" y="-62.6" font-family="Times,serif" font-size="14.00">TrafficCountComponent</text>
</g>
<!-- TrafficCountComponent&#45;&gt;AppModule -->
<g id="edge15" class="edge">
<title>TrafficCountComponent&#45;&gt;AppModule</title>
<path fill="none" stroke="black" d="M239,-84.81C239,-107.29 239,-142.8 239,-142.8 239,-142.8 1379.28,-142.8 1379.28,-142.8"/>
<polygon fill="black" stroke="black" points="1379.28,-146.3 1389.28,-142.8 1379.27,-139.3 1379.28,-146.3"/>
</g>
<!-- YearlyComponent -->
<g id="node16" class="node">
<title>YearlyComponent</title>
<polygon fill="#ffffb3" stroke="black" points="143.92,-84.8 24.08,-84.8 24.08,-48.8 143.92,-48.8 143.92,-84.8"/>
<text text-anchor="middle" x="84" y="-62.6" font-family="Times,serif" font-size="14.00">YearlyComponent</text>
</g>
<!-- YearlyComponent&#45;&gt;AppModule -->
<g id="edge16" class="edge">
<title>YearlyComponent&#45;&gt;AppModule</title>
<path fill="none" stroke="black" d="M84,-84.95C84,-108.56 84,-146.8 84,-146.8 84,-146.8 1379.21,-146.8 1379.21,-146.8"/>
<polygon fill="black" stroke="black" points="1379.21,-150.3 1389.21,-146.8 1379.21,-143.3 1379.21,-150.3"/>
</g>
<!-- AppComponent  -->
<g id="node19" class="node">
<title>AppComponent </title>
<polygon fill="#80b1d3" stroke="black" points="1485.44,-214.8 1376.56,-214.8 1376.56,-178.8 1485.44,-178.8 1485.44,-214.8"/>
<text text-anchor="middle" x="1431" y="-192.6" font-family="Times,serif" font-size="14.00">AppComponent </text>
</g>
<!-- AppModule&#45;&gt;AppComponent  -->
<g id="edge18" class="edge">
<title>AppModule&#45;&gt;AppComponent </title>
<path fill="none" stroke="black" stroke-dasharray="1,5" d="M1431,-149.91C1431,-149.91 1431,-168.79 1431,-168.79"/>
<polygon fill="black" stroke="black" points="1427.5,-168.79 1431,-178.79 1434.5,-168.79 1427.5,-168.79"/>
</g>
<!-- AppRoutingModule -->
<g id="node18" class="node">
<title>AppRoutingModule</title>
<polygon fill="#8dd3c7" stroke="black" points="2633.27,-84.8 2630.27,-88.8 2609.27,-88.8 2606.27,-84.8 2504.73,-84.8 2504.73,-48.8 2633.27,-48.8 2633.27,-84.8"/>
<text text-anchor="middle" x="2569" y="-62.6" font-family="Times,serif" font-size="14.00">AppRoutingModule</text>
</g>
<!-- AppRoutingModule&#45;&gt;AppModule -->
<g id="edge17" class="edge">
<title>AppRoutingModule&#45;&gt;AppModule</title>
<path fill="none" stroke="black" d="M2569,-84.84C2569,-106.46 2569,-139.8 2569,-139.8 2569,-139.8 1482.85,-139.8 1482.85,-139.8"/>
<polygon fill="black" stroke="black" points="1482.85,-136.3 1472.85,-139.8 1482.85,-143.3 1482.85,-136.3"/>
</g>
<!-- LoadInterceptor -->
<g id="node20" class="node">
<title>LoadInterceptor</title>
<ellipse fill="#fdb462" stroke="black" cx="2878" cy="-66.8" rx="73.47" ry="18"/>
<text text-anchor="middle" x="2878" y="-62.6" font-family="Times,serif" font-size="14.00">LoadInterceptor</text>
</g>
<!-- LoadInterceptor&#45;&gt;AppModule -->
<g id="edge19" class="edge">
<title>LoadInterceptor&#45;&gt;AppModule</title>
<path fill="none" stroke="black" d="M2878,-84.95C2878,-108.56 2878,-146.8 2878,-146.8 2878,-146.8 1482.75,-146.8 1482.75,-146.8"/>
<polygon fill="black" stroke="black" points="1482.75,-143.3 1472.75,-146.8 1482.75,-150.3 1482.75,-143.3"/>
</g>
<!-- configService -->
<g id="node21" class="node">
<title>configService</title>
<ellipse fill="#fdb462" stroke="black" cx="2722" cy="-66.8" rx="64.83" ry="18"/>
<text text-anchor="middle" x="2722" y="-62.6" font-family="Times,serif" font-size="14.00">configService</text>
</g>
<!-- configService&#45;&gt;AppModule -->
<g id="edge20" class="edge">
<title>configService&#45;&gt;AppModule</title>
<path fill="none" stroke="black" d="M2722,-84.81C2722,-107.29 2722,-142.8 2722,-142.8 2722,-142.8 1482.86,-142.8 1482.86,-142.8"/>
<polygon fill="black" stroke="black" points="1482.86,-139.3 1472.86,-142.8 1482.86,-146.3 1482.86,-139.3"/>
</g>
</g>
</svg>
