<?xml version="1.0" encoding="UTF-8" standalone="no"?>
<!DOCTYPE svg PUBLIC "-//W3C//DTD SVG 1.1//EN"
 "http://www.w3.org/Graphics/SVG/1.1/DTD/svg11.dtd">
<!-- Generated by graphviz version 2.47.3 (20210619.1520)
 -->
<!-- Title: dependencies Pages: 1 -->
<svg width="2983pt" height="247pt"
 viewBox="0.00 0.00 2983.00 246.80" xmlns="http://www.w3.org/2000/svg" xmlns:xlink="http://www.w3.org/1999/xlink">
<g id="graph0" class="graph" transform="scale(1 1) rotate(0) translate(4 242.8)">
<title>dependencies</title>
<polygon fill="white" stroke="transparent" points="-4,4 -4,-242.8 2979,-242.8 2979,4 -4,4"/>
<text text-anchor="middle" x="1487.5" y="-8.2" font-family="sans-serif" font-size="14.00">dependencies</text>
<g id="clust1" class="cluster">
<title>cluster_AppModule</title>
<polygon fill="none" stroke="black" stroke-dasharray="1,5" points="8,-32.8 8,-230.8 2967,-230.8 2967,-32.8 8,-32.8"/>
</g>
<g id="clust2" class="cluster">
<title>cluster_AppModule_declarations</title>
<polygon fill="none" stroke="black" points="486,-40.8 486,-92.8 2959,-92.8 2959,-40.8 486,-40.8"/>
</g>
<g id="clust19" class="cluster">
<title>cluster_AppModule_imports</title>
<polygon fill="none" stroke="black" points="334,-40.8 334,-92.8 478,-92.8 478,-40.8 334,-40.8"/>
</g>
<g id="clust21" class="cluster">
<title>cluster_AppModule_bootstrap</title>
<polygon fill="none" stroke="black" points="1430,-170.8 1430,-222.8 1554,-222.8 1554,-170.8 1430,-170.8"/>
</g>
<g id="clust22" class="cluster">
<title>cluster_AppModule_providers</title>
<polygon fill="none" stroke="black" points="16,-40.8 16,-92.8 326,-92.8 326,-40.8 16,-40.8"/>
</g>
<!-- AnalysisComponent -->
<g id="node1" class="node">
<title>AnalysisComponent</title>
<polygon fill="#ffffb3" stroke="black" points="2951.32,-84.8 2820.68,-84.8 2820.68,-48.8 2951.32,-48.8 2951.32,-84.8"/>
<text text-anchor="middle" x="2886" y="-62.6" font-family="Times,serif" font-size="14.00">AnalysisComponent</text>
</g>
<!-- AppModule -->
<g id="node17" class="node">
<title>AppModule</title>
<polygon fill="#8dd3c7" stroke="black" points="1533.66,-149.8 1530.66,-153.8 1509.66,-153.8 1506.66,-149.8 1450.34,-149.8 1450.34,-113.8 1533.66,-113.8 1533.66,-149.8"/>
<text text-anchor="middle" x="1492" y="-127.6" font-family="Times,serif" font-size="14.00">AppModule</text>
</g>
<!-- AnalysisComponent&#45;&gt;AppModule -->
<g id="edge1" class="edge">
<title>AnalysisComponent&#45;&gt;AppModule</title>
<path fill="none" stroke="black" d="M2886,-84.95C2886,-108.56 2886,-146.8 2886,-146.8 2886,-146.8 1543.72,-146.8 1543.72,-146.8"/>
<polygon fill="black" stroke="black" points="1543.72,-143.3 1533.72,-146.8 1543.72,-150.3 1543.72,-143.3"/>
</g>
<!-- AppComponent -->
<g id="node2" class="node">
<title>AppComponent</title>
<polygon fill="#ffffb3" stroke="black" points="2802.94,-84.8 2697.06,-84.8 2697.06,-48.8 2802.94,-48.8 2802.94,-84.8"/>
<text text-anchor="middle" x="2750" y="-62.6" font-family="Times,serif" font-size="14.00">AppComponent</text>
</g>
<!-- AppComponent&#45;&gt;AppModule -->
<g id="edge2" class="edge">
<title>AppComponent&#45;&gt;AppModule</title>
<path fill="none" stroke="black" d="M2750,-84.81C2750,-107.29 2750,-142.8 2750,-142.8 2750,-142.8 1543.86,-142.8 1543.86,-142.8"/>
<polygon fill="black" stroke="black" points="1543.86,-139.3 1533.86,-142.8 1543.86,-146.3 1543.86,-139.3"/>
</g>
<!-- CompareMonthlyComponent -->
<g id="node3" class="node">
<title>CompareMonthlyComponent</title>
<polygon fill="#ffffb3" stroke="black" points="2679.38,-84.8 2498.62,-84.8 2498.62,-48.8 2679.38,-48.8 2679.38,-84.8"/>
<text text-anchor="middle" x="2589" y="-62.6" font-family="Times,serif" font-size="14.00">CompareMonthlyComponent</text>
</g>
<!-- CompareMonthlyComponent&#45;&gt;AppModule -->
<g id="edge3" class="edge">
<title>CompareMonthlyComponent&#45;&gt;AppModule</title>
<path fill="none" stroke="black" d="M2589,-84.84C2589,-106.46 2589,-139.8 2589,-139.8 2589,-139.8 1543.66,-139.8 1543.66,-139.8"/>
<polygon fill="black" stroke="black" points="1543.66,-136.3 1533.66,-139.8 1543.66,-143.3 1543.66,-136.3"/>
</g>
<!-- CompareWeeklyComponent -->
<g id="node4" class="node">
<title>CompareWeeklyComponent</title>
<polygon fill="#ffffb3" stroke="black" points="2480.18,-84.8 2303.82,-84.8 2303.82,-48.8 2480.18,-48.8 2480.18,-84.8"/>
<text text-anchor="middle" x="2392" y="-62.6" font-family="Times,serif" font-size="14.00">CompareWeeklyComponent</text>
</g>
<!-- CompareWeeklyComponent&#45;&gt;AppModule -->
<g id="edge4" class="edge">
<title>CompareWeeklyComponent&#45;&gt;AppModule</title>
<path fill="none" stroke="black" d="M2392,-84.93C2392,-105.37 2392,-135.8 2392,-135.8 2392,-135.8 1543.9,-135.8 1543.9,-135.8"/>
<polygon fill="black" stroke="black" points="1543.9,-132.3 1533.9,-135.8 1543.9,-139.3 1543.9,-132.3"/>
</g>
<!-- CompareYearlyComponent -->
<g id="node5" class="node">
<title>CompareYearlyComponent</title>
<polygon fill="#ffffb3" stroke="black" points="2286.24,-84.8 2115.76,-84.8 2115.76,-48.8 2286.24,-48.8 2286.24,-84.8"/>
<text text-anchor="middle" x="2201" y="-62.6" font-family="Times,serif" font-size="14.00">CompareYearlyComponent</text>
</g>
<!-- CompareYearlyComponent&#45;&gt;AppModule -->
<g id="edge5" class="edge">
<title>CompareYearlyComponent&#45;&gt;AppModule</title>
<path fill="none" stroke="black" d="M2201,-84.91C2201,-104.14 2201,-131.8 2201,-131.8 2201,-131.8 1543.7,-131.8 1543.7,-131.8"/>
<polygon fill="black" stroke="black" points="1543.7,-128.3 1533.7,-131.8 1543.7,-135.3 1543.7,-128.3"/>
</g>
<!-- FooterComponent -->
<g id="node6" class="node">
<title>FooterComponent</title>
<polygon fill="#ffffb3" stroke="black" points="2097.88,-84.8 1980.12,-84.8 1980.12,-48.8 2097.88,-48.8 2097.88,-84.8"/>
<text text-anchor="middle" x="2039" y="-62.6" font-family="Times,serif" font-size="14.00">FooterComponent</text>
</g>
<!-- FooterComponent&#45;&gt;AppModule -->
<g id="edge6" class="edge">
<title>FooterComponent&#45;&gt;AppModule</title>
<path fill="none" stroke="black" d="M2039,-85.07C2039,-103.36 2039,-128.8 2039,-128.8 2039,-128.8 1544.01,-128.8 1544.01,-128.8"/>
<polygon fill="black" stroke="black" points="1544.01,-125.3 1534.01,-128.8 1544.01,-132.3 1544.01,-125.3"/>
</g>
<!-- HeaderComponent -->
<g id="node7" class="node">
<title>HeaderComponent</title>
<polygon fill="#ffffb3" stroke="black" points="1961.74,-84.8 1840.26,-84.8 1840.26,-48.8 1961.74,-48.8 1961.74,-84.8"/>
<text text-anchor="middle" x="1901" y="-62.6" font-family="Times,serif" font-size="14.00">HeaderComponent</text>
</g>
<!-- HeaderComponent&#45;&gt;AppModule -->
<g id="edge7" class="edge">
<title>HeaderComponent&#45;&gt;AppModule</title>
<path fill="none" stroke="black" d="M1901,-84.83C1901,-101.86 1901,-124.8 1901,-124.8 1901,-124.8 1543.85,-124.8 1543.85,-124.8"/>
<polygon fill="black" stroke="black" points="1543.85,-121.3 1533.85,-124.8 1543.85,-128.3 1543.85,-121.3"/>
</g>
<!-- HomeComponent -->
<g id="node8" class="node">
<title>HomeComponent</title>
<polygon fill="#ffffb3" stroke="black" points="1821.55,-84.8 1706.45,-84.8 1706.45,-48.8 1821.55,-48.8 1821.55,-84.8"/>
<text text-anchor="middle" x="1764" y="-62.6" font-family="Times,serif" font-size="14.00">HomeComponent</text>
</g>
<!-- HomeComponent&#45;&gt;AppModule -->
<g id="edge8" class="edge">
<title>HomeComponent&#45;&gt;AppModule</title>
<path fill="none" stroke="black" d="M1764,-84.81C1764,-100.85 1764,-121.8 1764,-121.8 1764,-121.8 1543.9,-121.8 1543.9,-121.8"/>
<polygon fill="black" stroke="black" points="1543.9,-118.3 1533.9,-121.8 1543.9,-125.3 1543.9,-118.3"/>
</g>
<!-- LoaderComponent -->
<g id="node9" class="node">
<title>LoaderComponent</title>
<polygon fill="#ffffb3" stroke="black" points="1688.47,-84.8 1567.53,-84.8 1567.53,-48.8 1688.47,-48.8 1688.47,-84.8"/>
<text text-anchor="middle" x="1628" y="-62.6" font-family="Times,serif" font-size="14.00">LoaderComponent</text>
</g>
<!-- LoaderComponent&#45;&gt;AppModule -->
<g id="edge9" class="edge">
<title>LoaderComponent&#45;&gt;AppModule</title>
<path fill="none" stroke="black" d="M1628,-84.92C1628,-99.58 1628,-117.8 1628,-117.8 1628,-117.8 1543.91,-117.8 1543.91,-117.8"/>
<polygon fill="black" stroke="black" points="1543.91,-114.3 1533.91,-117.8 1543.91,-121.3 1543.91,-114.3"/>
</g>
<!-- LogInComponent -->
<g id="node10" class="node">
<title>LogInComponent</title>
<polygon fill="#ffffb3" stroke="black" points="1549.55,-84.8 1434.45,-84.8 1434.45,-48.8 1549.55,-48.8 1549.55,-84.8"/>
<text text-anchor="middle" x="1492" y="-62.6" font-family="Times,serif" font-size="14.00">LogInComponent</text>
</g>
<!-- LogInComponent&#45;&gt;AppModule -->
<g id="edge10" class="edge">
<title>LogInComponent&#45;&gt;AppModule</title>
<path fill="none" stroke="black" d="M1492,-84.91C1492,-84.91 1492,-103.79 1492,-103.79"/>
<polygon fill="black" stroke="black" points="1488.5,-103.79 1492,-113.79 1495.5,-103.79 1488.5,-103.79"/>
</g>
<!-- LoginHeaderComponent -->
<g id="node11" class="node">
<title>LoginHeaderComponent</title>
<polygon fill="#ffffb3" stroke="black" points="1416.69,-84.8 1261.31,-84.8 1261.31,-48.8 1416.69,-48.8 1416.69,-84.8"/>
<text text-anchor="middle" x="1339" y="-62.6" font-family="Times,serif" font-size="14.00">LoginHeaderComponent</text>
</g>
<!-- LoginHeaderComponent&#45;&gt;AppModule -->
<g id="edge11" class="edge">
<title>LoginHeaderComponent&#45;&gt;AppModule</title>
<path fill="none" stroke="black" d="M1339,-84.92C1339,-99.58 1339,-117.8 1339,-117.8 1339,-117.8 1440.19,-117.8 1440.19,-117.8"/>
<polygon fill="black" stroke="black" points="1440.19,-121.3 1450.19,-117.8 1440.19,-114.3 1440.19,-121.3"/>
</g>
<!-- MenubarComponent -->
<g id="node12" class="node">
<title>MenubarComponent</title>
<polygon fill="#ffffb3" stroke="black" points="1242.87,-84.8 1111.13,-84.8 1111.13,-48.8 1242.87,-48.8 1242.87,-84.8"/>
<text text-anchor="middle" x="1177" y="-62.6" font-family="Times,serif" font-size="14.00">MenubarComponent</text>
</g>
<!-- MenubarComponent&#45;&gt;AppModule -->
<g id="edge12" class="edge">
<title>MenubarComponent&#45;&gt;AppModule</title>
<path fill="none" stroke="black" d="M1177,-84.81C1177,-100.85 1177,-121.8 1177,-121.8 1177,-121.8 1440.17,-121.8 1440.17,-121.8"/>
<polygon fill="black" stroke="black" points="1440.17,-125.3 1450.17,-121.8 1440.17,-118.3 1440.17,-125.3"/>
</g>
<!-- PerimeterComponent -->
<g id="node13" class="node">
<title>PerimeterComponent</title>
<polygon fill="#ffffb3" stroke="black" points="1092.75,-84.8 957.25,-84.8 957.25,-48.8 1092.75,-48.8 1092.75,-84.8"/>
<text text-anchor="middle" x="1025" y="-62.6" font-family="Times,serif" font-size="14.00">PerimeterComponent</text>
</g>
<!-- PerimeterComponent&#45;&gt;AppModule -->
<g id="edge13" class="edge">
<title>PerimeterComponent&#45;&gt;AppModule</title>
<path fill="none" stroke="black" d="M1025,-84.83C1025,-101.86 1025,-124.8 1025,-124.8 1025,-124.8 1440.15,-124.8 1440.15,-124.8"/>
<polygon fill="black" stroke="black" points="1440.15,-128.3 1450.15,-124.8 1440.15,-121.3 1440.15,-128.3"/>
</g>
<!-- QuarterlyComponent -->
<g id="node14" class="node">
<title>QuarterlyComponent</title>
<polygon fill="#ffffb3" stroke="black" points="939.47,-84.8 804.53,-84.8 804.53,-48.8 939.47,-48.8 939.47,-84.8"/>
<text text-anchor="middle" x="872" y="-62.6" font-family="Times,serif" font-size="14.00">QuarterlyComponent</text>
</g>
<!-- QuarterlyComponent&#45;&gt;AppModule -->
<g id="edge14" class="edge">
<title>QuarterlyComponent&#45;&gt;AppModule</title>
<path fill="none" stroke="black" d="M872,-85.07C872,-103.36 872,-128.8 872,-128.8 872,-128.8 1439.87,-128.8 1439.87,-128.8"/>
<polygon fill="black" stroke="black" points="1439.87,-132.3 1449.87,-128.8 1439.87,-125.3 1439.87,-132.3"/>
</g>
<!-- TrafficCountComponent -->
<g id="node15" class="node">
<title>TrafficCountComponent</title>
<polygon fill="#ffffb3" stroke="black" points="786.41,-84.8 631.59,-84.8 631.59,-48.8 786.41,-48.8 786.41,-84.8"/>
<text text-anchor="middle" x="709" y="-62.6" font-family="Times,serif" font-size="14.00">TrafficCountComponent</text>
</g>
<!-- TrafficCountComponent&#45;&gt;AppModule -->
<g id="edge15" class="edge">
<title>TrafficCountComponent&#45;&gt;AppModule</title>
<path fill="none" stroke="black" d="M709,-84.91C709,-104.14 709,-131.8 709,-131.8 709,-131.8 1440.18,-131.8 1440.18,-131.8"/>
<polygon fill="black" stroke="black" points="1440.18,-135.3 1450.18,-131.8 1440.18,-128.3 1440.18,-135.3"/>
</g>
<!-- YearlyComponent -->
<g id="node16" class="node">
<title>YearlyComponent</title>
<polygon fill="#ffffb3" stroke="black" points="613.92,-84.8 494.08,-84.8 494.08,-48.8 613.92,-48.8 613.92,-84.8"/>
<text text-anchor="middle" x="554" y="-62.6" font-family="Times,serif" font-size="14.00">YearlyComponent</text>
</g>
<!-- YearlyComponent&#45;&gt;AppModule -->
<g id="edge16" class="edge">
<title>YearlyComponent&#45;&gt;AppModule</title>
<path fill="none" stroke="black" d="M554,-84.93C554,-105.37 554,-135.8 554,-135.8 554,-135.8 1440.18,-135.8 1440.18,-135.8"/>
<polygon fill="black" stroke="black" points="1440.18,-139.3 1450.18,-135.8 1440.18,-132.3 1440.18,-139.3"/>
</g>
<!-- AppComponent  -->
<g id="node19" class="node">
<title>AppComponent </title>
<polygon fill="#80b1d3" stroke="black" points="1546.44,-214.8 1437.56,-214.8 1437.56,-178.8 1546.44,-178.8 1546.44,-214.8"/>
<text text-anchor="middle" x="1492" y="-192.6" font-family="Times,serif" font-size="14.00">AppComponent </text>
</g>
<!-- AppModule&#45;&gt;AppComponent  -->
<g id="edge18" class="edge">
<title>AppModule&#45;&gt;AppComponent </title>
<path fill="none" stroke="black" stroke-dasharray="1,5" d="M1492,-149.91C1492,-149.91 1492,-168.79 1492,-168.79"/>
<polygon fill="black" stroke="black" points="1488.5,-168.79 1492,-178.79 1495.5,-168.79 1488.5,-168.79"/>
</g>
<!-- AppRoutingModule -->
<g id="node18" class="node">
<title>AppRoutingModule</title>
<polygon fill="#8dd3c7" stroke="black" points="470.27,-84.8 467.27,-88.8 446.27,-88.8 443.27,-84.8 341.73,-84.8 341.73,-48.8 470.27,-48.8 470.27,-84.8"/>
<text text-anchor="middle" x="406" y="-62.6" font-family="Times,serif" font-size="14.00">AppRoutingModule</text>
</g>
<!-- AppRoutingModule&#45;&gt;AppModule -->
<g id="edge17" class="edge">
<title>AppRoutingModule&#45;&gt;AppModule</title>
<path fill="none" stroke="black" d="M406,-84.84C406,-106.46 406,-139.8 406,-139.8 406,-139.8 1440.09,-139.8 1440.09,-139.8"/>
<polygon fill="black" stroke="black" points="1440.09,-143.3 1450.09,-139.8 1440.09,-136.3 1440.09,-143.3"/>
</g>
<!-- LoadInterceptor -->
<g id="node20" class="node">
<title>LoadInterceptor</title>
<ellipse fill="#fdb462" stroke="black" cx="245" cy="-66.8" rx="73.47" ry="18"/>
<text text-anchor="middle" x="245" y="-62.6" font-family="Times,serif" font-size="14.00">LoadInterceptor</text>
</g>
<!-- LoadInterceptor&#45;&gt;AppModule -->
<g id="edge19" class="edge">
<title>LoadInterceptor&#45;&gt;AppModule</title>
<path fill="none" stroke="black" d="M245,-84.81C245,-107.29 245,-142.8 245,-142.8 245,-142.8 1440.15,-142.8 1440.15,-142.8"/>
<polygon fill="black" stroke="black" points="1440.15,-146.3 1450.15,-142.8 1440.15,-139.3 1440.15,-146.3"/>
</g>
<!-- configService -->
<g id="node21" class="node">
<title>configService</title>
<ellipse fill="#fdb462" stroke="black" cx="89" cy="-66.8" rx="64.83" ry="18"/>
<text text-anchor="middle" x="89" y="-62.6" font-family="Times,serif" font-size="14.00">configService</text>
</g>
<!-- configService&#45;&gt;AppModule -->
<g id="edge20" class="edge">
<title>configService&#45;&gt;AppModule</title>
<path fill="none" stroke="black" d="M89,-84.95C89,-108.56 89,-146.8 89,-146.8 89,-146.8 1440.01,-146.8 1440.01,-146.8"/>
<polygon fill="black" stroke="black" points="1440.01,-150.3 1450.01,-146.8 1440.01,-143.3 1440.01,-150.3"/>
</g>
</g>
</svg>
